<?xml version="1.0" encoding="UTF-8"?>
<svg width="300px" height="55px" viewBox="0 0 300 55" version="1.1" xmlns="http://www.w3.org/2000/svg" xmlns:xlink="http://www.w3.org/1999/xlink">
    <title>caes-logo</title>
    <g id="mobile" stroke="none" stroke-width="1" fill="none" fill-rule="evenodd" opacity="0.318447581">
        <g id="dashboard" transform="translate(-413, -2298)" fill="#000000">
            <g id="caes-logo" transform="translate(413, 2298)">
                <path d="M36.7400149,20.8790876 C37.0824022,14.7763641 35.9392012,8.9410336 33.6406223,3.7071579 C33.1478139,2.58382093 32.58266,1.50134561 31.9867056,0.438942685 L0,0.438942685 L0,54.9304635 L9.21437167,54.9304635 C24.3274024,50.7998524 35.8095525,37.3957971 36.7400149,20.8790876" id="Fill-1"></path>
                <path d="M35.6985273,0.438942685 C39.017105,5.03336939 41.4489141,10.3754926 42.655865,16.2911127 C45.6556931,31.0041746 40.4124405,45.4785184 30.1014269,54.9304635 L54.450318,54.9304635 L54.450318,0.438942685 L35.6985273,0.438942685" id="Fill-2"></path>
                <path d="M166.002665,18.4187861 L167.949544,13.2709349 L168.286201,13.5641351 C169.479543,14.5383629 171.099077,15.3670659 172.626927,15.400042 C173.993611,15.4315843 174.660478,15.0674138 174.479256,13.909667 C174.34531,13.0458374 173.369721,12.8931438 172.759441,12.7734264 L171.423557,12.5060334 C168.82342,12.019278 166.636582,10.4142037 166.636582,7.37180283 C166.636582,2.77235803 170.597673,0.193055907 174.581686,0.193055907 C176.673973,0.193055907 178.595782,0.726407985 180.391525,1.89705845 L178.704659,6.45850908 C177.777778,5.79038524 176.377428,4.85056726 174.603175,4.78676574 C174.020113,4.76454274 172.683514,5.07208043 173.11114,6.42768362 C173.295943,7.00548171 174.123259,7.248501 174.632543,7.37180283 L176.142485,7.7366902 C178.958226,8.3933441 180.997507,9.99913531 180.997507,13.2838386 C180.997507,17.907657 177.012062,20.1951926 173.054553,20.1951926 C170.743797,20.1951926 168.069165,19.5371049 166.002665,18.4187861" id="Fill-3"></path>
                <polygon id="Fill-4" points="157.787519 19.9041429 164.570082 19.9041429 164.570082 0.50919605 157.787519 0.50919605"></polygon>
                <polyline id="Fill-5" points="150.138961 0.508479179 157.085554 0.508479179 149.989256 19.9041429 144.352759 19.9041429 137.279382 0.508479179 144.202338 0.508479179 147.172082 12.2128332 150.138961 0.508479179"></polyline>
                <path d="M130.934474,6.10724225 L130.934474,6.10724225 C131.057676,6.93236086 132.272506,12.8687702 132.272506,12.8687702 L129.605753,12.8687702 L130.934474,6.10724225 Z M120.824738,19.9041429 L127.872328,19.9041429 L128.40883,17.468215 L133.437196,17.468215 L134.104779,19.9041429 L141.156667,19.9041429 L134.556043,0.50919605 L127.1632,0.50919605 L120.824738,19.9041429 L120.824738,19.9041429 Z" id="Fill-6"></path>
                <path d="M103.398802,0.508479179 L110.346112,0.508479179 C116.547046,0.508479179 121.283164,3.35732482 121.283164,10.4866076 C121.283164,16.2301787 117.423787,19.9041429 112.001461,19.9041429 L103.398802,19.8933898 L103.398802,0.508479179 Z M110.227208,14.3354884 L110.682053,14.3354884 C112.917598,14.3354884 114.576529,12.9927889 114.576529,10.4615171 C114.576529,7.7366902 113.107415,6.21692353 110.651252,6.21692353 L110.227208,6.21692353 L110.227208,14.3354884 L110.227208,14.3354884 Z" id="Fill-7"></path>
                <path d="M99.3424446,1.11710272 L99.704888,4.30072715 C99.7894103,5.05559239 100.221334,6.86784246 99.6869807,6.62554004 C99.3546215,6.47643086 99.0802819,5.65489661 98.8080912,4.92440498 C98.669847,4.55378264 98.0094264,2.80174974 97.8368002,2.67271295 C97.0008882,2.04831824 94.9186293,1.34291711 93.5096843,1.33646527 C89.2377228,1.3206941 86.4119535,4.47492682 86.4119535,10.072973 C86.4119535,14.087451 88.3316142,18.9033909 93.2174374,18.9033909 C94.9680534,18.9033909 98.3202968,18.352117 99.2335683,15.8595563 C99.6461521,14.7312013 100.022921,13.7282986 100.295828,14.0336857 C100.499255,14.2551989 100.234944,15.1584564 100.113174,15.6452119 C99.5372758,17.9556873 99.505759,18.6560704 99.3245373,18.7456793 C97.1176437,19.8561126 94.2861441,20.2209999 91.8092086,20.2209999 C83.930004,20.2209999 81.2102458,15.6208383 81.2102458,11.0221103 C81.2102458,3.04118468 86.1089622,-0.32022378 93.700934,0.0238743344 C95.6220274,0.0955614416 97.543837,0.437508943 99.3424446,1.11710272" id="Fill-9"></path>
                <path d="M76.0815999,1.47123703 L74.8194946,1.03036132 C74.397599,0.648985909 74.9133287,0.54217212 74.9133287,0.54217212 C74.9133287,0.54217212 76.7362902,0.881252137 81.2782935,0.494858629 C81.2782935,0.494858629 81.6722537,0.574431318 81.4007793,0.894155816 L79.9094608,1.53360481 C78.938886,1.95727562 78.938886,1.71425632 78.938886,2.77880987 L78.9302905,12.6630282 C78.9302905,20.3944827 71.0747235,20.2209999 69.5440089,20.2209999 C68.8141081,20.2209999 61.6082173,20.2209999 61.6082173,14.0150471 L61.6082173,3.55088001 C61.6082173,1.72716 61.8037648,1.77447349 61.1977824,1.56156278 L59.3755372,0.87695091 C59.3755372,0.87695091 59.0660994,0.438942685 59.6162111,0.466900657 C61.1060971,0.54217212 63.262134,0.861179747 68.3341929,0.494858629 C68.3341929,0.494858629 68.7761446,0.603106161 68.4853304,0.922113788 L66.9689416,1.35008582 C65.8149963,1.86766673 65.9675663,1.47123703 65.9367658,2.65765865 L65.9732967,12.9741503 C65.9732967,15.5039883 67.2740817,18.6367149 71.3648215,18.6367149 C76.9332703,18.6367149 76.9862759,13.8157569 76.9862759,12.7433178 L76.9955876,2.52360376 C77.0550398,1.56156278 76.9332703,1.83540753 76.0815999,1.47123703" id="Fill-11"></path>
                <polygon id="Fill-12" points="61.6096499 25.0111324 299.929087 25.0111324 299.929087 24.2010681 61.6096499 24.2010681"></polygon>
                <path d="M68.5497966,33.1282636 C68.4201478,32.9511964 68.2711592,32.7963523 68.1056959,32.664448 C67.9395164,32.53111 67.7611598,32.4207118 67.5691937,32.3296692 C67.377944,32.2393435 67.1780987,32.1712407 66.967509,32.1246441 C66.7576357,32.0787643 66.5448971,32.0551076 66.330726,32.0551076 C65.9439287,32.0551076 65.5907971,32.1246441 65.2706149,32.2637171 C64.9518652,32.4020732 64.6782419,32.5941946 64.4518939,32.8379308 C64.2248295,33.081667 64.0479056,33.3676985 63.9218383,33.6960255 C63.7964873,34.0236356 63.7334537,34.3777699 63.7334537,34.7562778 C63.7334537,35.1433882 63.7964873,35.4982393 63.9218383,35.8222651 C64.0479056,36.1462908 64.2269784,36.4251536 64.4576242,36.6588536 C64.6889863,36.8918367 64.9669073,37.0753557 65.2899547,37.20726 C65.6137184,37.3391643 65.9725804,37.4051164 66.3686895,37.4051164 C66.5742651,37.4051164 66.7784081,37.3821765 66.9825511,37.3334293 C67.1866942,37.2853989 67.3822417,37.2158624 67.5691937,37.1255367 C67.7561458,37.0344941 67.9330697,36.9262465 68.098533,36.8000772 C68.2647126,36.6739079 68.4158501,36.5312506 68.5497966,36.3713883 L68.5497966,39.4066204 C68.3392069,39.4689882 68.1422268,39.5292054 67.9574236,39.5865551 C67.7726205,39.642471 67.5913988,39.6912183 67.4144748,39.731363 C67.2382671,39.7715078 67.0613432,39.8030501 66.8815541,39.82599 C66.7031975,39.8496468 66.5148129,39.8611167 66.3185491,39.8611167 C65.6366397,39.8611167 64.9840983,39.7363811 64.3602086,39.4883437 C63.7356025,39.2403063 63.1697324,38.8868889 62.6604493,38.4280914 C62.1232308,37.9406191 61.7278379,37.3857609 61.4757034,36.7656674 C61.2235688,36.1455739 61.0975016,35.4709982 61.0975016,34.744091 C61.0975016,34.0745334 61.2199874,33.4329338 61.4635264,32.8192922 C61.7070655,32.2049336 62.0644949,31.657961 62.5350983,31.1783743 C62.7750559,30.9346381 63.0372185,30.7145587 63.3230187,30.5188529 C63.608819,30.3238639 63.9110939,30.156833 64.228411,30.0199106 C64.5442955,29.8837051 64.8737895,29.7790419 65.2147441,29.7080717 C65.5549825,29.6363846 65.8952209,29.600541 66.2354593,29.600541 C66.6437453,29.600541 67.0369893,29.6442702 67.4144748,29.7302947 C67.7933929,29.8170361 68.1715948,29.9374704 68.5497966,30.0937483 L68.5497966,33.1282636" id="Fill-13"></path>
                <path d="M75.8452238,31.9920229 C75.4670219,31.9920229 75.1110252,32.0622763 74.7793823,32.2034999 C74.4477394,32.3447235 74.1562088,32.5339775 73.9062231,32.7719787 C73.6569538,33.009263 73.4585411,33.2831077 73.3138502,33.5913623 C73.1691594,33.9010506 73.0960976,34.2243595 73.0960976,34.560572 C73.0960976,34.9813753 73.1691594,35.3692026 73.3138502,35.7247706 C73.4585411,36.0796218 73.6569538,36.3864426 73.9062231,36.6452331 C74.1562088,36.9040235 74.4477394,37.1061812 74.7793823,37.2509891 C75.1110252,37.3965139 75.4670219,37.4696348 75.8452238,37.4696348 C76.2227093,37.4696348 76.5794224,37.3965139 76.9132141,37.2509891 C77.2477222,37.1061812 77.5392528,36.9040235 77.7863733,36.6452331 C78.0342101,36.3864426 78.2311902,36.0796218 78.3751647,35.7247706 C78.5212882,35.3692026 78.5943499,34.9813753 78.5943499,34.560572 C78.5943499,34.2243595 78.5212882,33.9010506 78.3751647,33.5913623 C78.2311902,33.2831077 78.0342101,33.009263 77.7863733,32.7719787 C77.5392528,32.5339775 77.2477222,32.3447235 76.9132141,32.2034999 C76.5794224,32.0622763 76.2227093,31.9920229 75.8452238,31.9920229 M75.8452238,29.5374564 C76.3115294,29.5374564 76.7685233,29.5933723 77.2162054,29.7052042 C77.6638875,29.8170361 78.0872156,29.9747477 78.4861899,30.1812066 C78.8858805,30.3869486 79.2540542,30.6392872 79.5899948,30.935355 C79.9266518,31.2321396 80.2153172,31.5662015 80.4567074,31.9389745 C80.6988138,32.3110306 80.8879147,32.7160627 81.0247264,33.1533541 C81.1608217,33.5906454 81.2295857,34.0558948 81.2295857,34.5476683 C81.2295857,35.3383771 81.0963555,36.0631338 80.8291788,36.7212214 C80.5620022,37.3800259 80.1888144,37.9456372 79.7096155,38.4187721 C79.2304166,38.8926239 78.6623976,39.2610956 78.0041258,39.5263379 C77.3465704,39.7908633 76.6266976,39.9234845 75.8452238,39.9234845 C75.3230474,39.9234845 74.8288064,39.8639842 74.3603518,39.7442667 C73.8918973,39.6245492 73.4585411,39.4525002 73.0609994,39.2295533 C72.664174,39.0073232 72.305312,38.7356291 71.9836972,38.4187721 C71.6613661,38.1011982 71.3884591,37.7427627 71.1635436,37.3434655 C70.9393445,36.9434514 70.7652857,36.5083107 70.6442324,36.0401939 C70.5224629,35.5706433 70.4608618,35.0738517 70.4608618,34.5476683 C70.4608618,34.0558948 70.5296258,33.5906454 70.6657212,33.1533541 C70.8025328,32.7160627 70.99235,32.3110306 71.2366054,31.9389745 C71.4801444,31.5662015 71.7688098,31.2321396 72.1033179,30.935355 C72.4371096,30.6392872 72.8045671,30.3869486 73.2035413,30.1812066 C73.6025156,29.9747477 74.0258438,29.8170361 74.4735259,29.7052042 C74.9219242,29.5933723 75.3782018,29.5374564 75.8452238,29.5374564" id="Fill-14"></path>
                <polyline id="Fill-15" points="85.9306057 37.4567311 88.9698298 37.4567311 88.9698298 39.6023262 83.4020973 39.6023262 83.4020973 29.8593315 85.9306057 29.8593315 85.9306057 37.4567311"></polyline>
                <polyline id="Fill-16" points="93.769698 37.4567311 96.8089221 37.4567311 96.8089221 39.6023262 91.2411896 39.6023262 91.2411896 29.8593315 93.769698 29.8593315 93.769698 37.4567311"></polyline>
                <polyline id="Fill-17" points="101.60879 32.0049266 101.60879 33.6322239 104.463928 33.6322239 104.463928 35.7785359 101.60879 35.7785359 101.60879 37.4567311 104.622228 37.4567311 104.622228 39.6008925 99.0802819 39.6008925 99.0802819 29.8593315 104.622228 29.8593315 104.622228 32.0049266 101.60879 32.0049266"></polyline>
                <path d="M117.089279,34.1627085 C117.082116,34.516126 117.066357,34.8587904 117.045585,35.1914185 C117.024812,35.5233298 116.97897,35.8487893 116.909489,36.1663632 C116.841442,36.4832202 116.741877,36.795776 116.613661,37.0997293 C116.485445,37.4051164 116.311386,37.7090697 116.093634,38.0123062 C115.853676,38.3442175 115.586499,38.6309659 115.293536,38.8725515 C114.998424,39.1148539 114.681107,39.3141441 114.340152,39.4697051 C114.00063,39.6245492 113.641052,39.7399655 113.263567,39.8130863 C112.883932,39.8869241 112.490688,39.9234845 112.083835,39.9234845 C111.318836,39.9234845 110.617586,39.7994658 109.98152,39.5521453 C109.344737,39.303391 108.796774,38.9535579 108.339064,38.5012123 C107.880637,38.0481498 107.52464,37.507629 107.269641,36.8760655 C107.015357,36.245219 106.888574,35.5469866 106.888574,34.7806514 C106.888574,33.9899426 107.01679,33.2716378 107.273222,32.6264538 C107.529654,31.9812699 107.890665,31.429996 108.354106,30.9733491 C108.818263,30.5174191 109.374821,30.1640017 110.022348,29.9130968 C110.669159,29.6629088 111.385451,29.5374564 112.171939,29.5374564 C113.172598,29.5374564 114.048622,29.7639876 114.800728,30.2163333 C115.55355,30.6686789 116.139476,31.3511402 116.559939,32.2637171 L114.158931,33.2673366 C114.070111,33.0357872 113.958369,32.825744 113.824423,32.63649 C113.688327,32.4465192 113.533608,32.2830726 113.357401,32.1468671 C113.180477,32.0099447 112.983497,31.9052815 112.764312,31.8314438 C112.545843,31.758323 112.30875,31.7217625 112.053034,31.7217625 C111.636869,31.7217625 111.269411,31.8113714 110.95496,31.9927398 C110.639791,32.1733913 110.376196,32.4099588 110.163458,32.7017253 C109.951435,32.9949256 109.791702,33.3239694 109.684975,33.6895736 C109.577531,34.0558948 109.52381,34.4236496 109.52381,34.794272 C109.52381,35.1727799 109.57968,35.5434022 109.690705,35.9082896 C109.802447,36.2710264 109.966478,36.5972027 110.182798,36.8853849 C110.399118,37.173567 110.667727,37.4051164 110.990058,37.5800329 C111.310956,37.7549495 111.680563,37.8416909 112.096728,37.8416909 C112.368919,37.8416909 112.624635,37.8065642 112.862443,37.7341602 C113.099536,37.6624731 113.30726,37.5556593 113.486333,37.4158695 C113.66469,37.2746459 113.810813,37.0990125 113.923987,36.8882524 C114.037877,36.6782091 114.107358,36.4323224 114.132428,36.150592 L112.065211,36.150592 L112.065211,34.1627085 L117.089279,34.1627085" id="Fill-18"></path>
                <polyline id="Fill-19" points="121.759498 32.0049266 121.759498 33.6322239 124.615352 33.6322239 124.615352 35.7785359 121.759498 35.7785359 121.759498 37.4567311 124.772936 37.4567311 124.772936 39.6008925 119.23099 39.6008925 119.23099 29.8593315 124.772936 29.8593315 124.772936 32.0049266 121.759498 32.0049266"></polyline>
                <path d="M135.392671,34.1684435 C135.122629,34.1684435 134.869062,34.2186245 134.63197,34.3189864 C134.394877,34.4207821 134.186436,34.554837 134.008796,34.7254523 C133.829723,34.8953508 133.688614,35.0903397 133.585468,35.3104191 C133.481606,35.5312154 133.430749,35.7627648 133.430749,36.0014828 C133.430749,36.3032856 133.481606,36.5792809 133.585468,36.8337702 C133.688614,37.0875425 133.829723,37.3061882 134.008796,37.4918578 C134.186436,37.6753768 134.394877,37.8201848 134.63197,37.9241311 C134.869062,38.0273605 135.122629,38.0796921 135.392671,38.0796921 C135.662713,38.0796921 135.916996,38.0273605 136.155521,37.9241311 C136.394762,37.8201848 136.602487,37.6753768 136.779411,37.4918578 C136.956335,37.3061882 137.096012,37.0875425 137.199874,36.8337702 C137.30302,36.5792809 137.355309,36.3032856 137.355309,36.0014828 C137.355309,35.7627648 137.30302,35.5312154 137.199874,35.3104191 C137.096012,35.0903397 136.956335,34.8953508 136.779411,34.7254523 C136.602487,34.554837 136.394762,34.4207821 136.155521,34.3189864 C135.916996,34.2186245 135.662713,34.1684435 135.392671,34.1684435 M135.392671,32.4164106 C135.725746,32.4164106 136.051659,32.4558385 136.371125,32.5354112 C136.691307,32.6157008 136.992866,32.7282495 137.278666,32.875925 C137.563034,33.0221667 137.827345,33.2013844 138.066586,33.4142951 C138.305828,33.6257721 138.513552,33.8637733 138.685462,34.1304493 C138.857372,34.3964085 138.992035,34.6853076 139.090883,34.9978633 C139.187582,35.3097023 139.23629,35.6416136 139.23629,35.9928804 C139.23629,36.5577748 139.141023,37.0760726 138.95049,37.5449063 C138.759956,38.0144568 138.494929,38.419489 138.151825,38.7578521 C137.810154,39.0947815 137.404733,39.3593069 136.93413,39.5485609 C136.464243,39.737098 135.951378,39.831725 135.392671,39.831725 C135.020199,39.831725 134.667068,39.7901465 134.33256,39.7034051 C133.997335,39.6173805 133.688614,39.4962293 133.404962,39.3349333 C133.121311,39.1772217 132.864879,38.9843834 132.634949,38.7578521 C132.405736,38.5298871 132.210905,38.2739641 132.049739,37.9886495 C131.890006,37.7040516 131.766088,37.3929296 131.679417,37.0595845 C131.591313,36.723372 131.548335,36.3685208 131.548335,35.9928804 C131.548335,35.6416136 131.597043,35.3097023 131.695891,34.9978633 C131.792591,34.6853076 131.92797,34.3964085 132.102029,34.1304493 C132.276087,33.8637733 132.483096,33.6257721 132.720904,33.4142951 C132.959429,33.2013844 133.221592,33.0221667 133.506676,32.875925 C133.79176,32.7282495 134.094035,32.6157008 134.413501,32.5354112 C134.733683,32.4558385 135.058879,32.4164106 135.392671,32.4164106" id="Fill-20"></path>
                <polyline id="Fill-21" points="142.241132 34.1777628 142.241132 35.3398108 144.226692 35.3398108 144.226692 36.8717643 142.241132 36.8717643 142.241132 39.6023262 140.436078 39.6023262 140.436078 32.6465262 144.428686 32.6465262 144.428686 34.1777628 142.241132 34.1777628"></polyline>
                <path d="M155.064896,32.8694731 L155.040542,32.8694731 L153.993324,35.9735249 L156.098504,35.9735249 L155.064896,32.8694731 Z M153.293508,37.9105105 L152.625208,39.6008925 L149.939832,39.6008925 L153.684603,29.8593315 L156.445906,29.8593315 L160.115466,39.6008925 L157.417197,39.6008925 L156.780414,37.9105105 L153.293508,37.9105105 L153.293508,37.9105105 Z" id="Fill-22"></path>
                <path d="M171.729414,34.1627085 C171.720818,34.516126 171.705776,34.8587904 171.68572,35.1914185 C171.664231,35.5233298 171.619105,35.8487893 171.549625,36.1663632 C171.480861,36.4832202 171.381296,36.795776 171.253796,37.0997293 C171.124864,37.4051164 170.951521,37.7090697 170.733053,38.0123062 C170.493811,38.3442175 170.226635,38.6309659 169.932955,38.8725515 C169.638559,39.1148539 169.321242,39.3141441 168.980288,39.4697051 C168.640766,39.6245492 168.281187,39.7399655 167.902986,39.8130863 C167.523351,39.8869241 167.130823,39.9234845 166.72397,39.9234845 C165.958255,39.9234845 165.257005,39.7994658 164.620939,39.5521453 C163.983439,39.303391 163.436193,38.9535579 162.978483,38.5012123 C162.520772,38.0481498 162.164776,37.507629 161.910492,36.8760655 C161.654776,36.245219 161.528709,35.5469866 161.528709,34.7806514 C161.528709,33.9899426 161.656925,33.2716378 161.912641,32.6264538 C162.16979,31.9812699 162.530084,31.429996 162.994241,30.9733491 C163.459114,30.5174191 164.014956,30.1640017 164.661767,29.9130968 C165.310011,29.6629088 166.026302,29.5374564 166.812074,29.5374564 C167.812733,29.5374564 168.688041,29.7639876 169.440147,30.2163333 C170.192969,30.6686789 170.778895,31.3511402 171.200074,32.2637171 L168.79835,33.2673366 C168.70953,33.0357872 168.597788,32.825744 168.463842,32.63649 C168.329179,32.4465192 168.17446,32.2830726 167.99682,32.1468671 C167.820612,32.0099447 167.623632,31.9052815 167.404447,31.8314438 C167.185262,31.758323 166.948885,31.7217625 166.691737,31.7217625 C166.275572,31.7217625 165.910979,31.8113714 165.594379,31.9927398 C165.279927,32.1733913 165.016331,32.4099588 164.804309,32.7017253 C164.591571,32.9949256 164.431838,33.3239694 164.32511,33.6895736 C164.217667,34.0558948 164.163945,34.4236496 164.163945,34.794272 C164.163945,35.1727799 164.219099,35.5434022 164.330124,35.9082896 C164.442582,36.2710264 164.605897,36.5972027 164.822933,36.8853849 C165.039253,37.173567 165.308578,37.4051164 165.629477,37.5800329 C165.951092,37.7549495 166.319982,37.8416909 166.736147,37.8416909 C167.009054,37.8416909 167.264054,37.8065642 167.501862,37.7341602 C167.738955,37.6624731 167.947396,37.5556593 168.126468,37.4158695 C168.304825,37.2746459 168.450948,37.0990125 168.564122,36.8882524 C168.678013,36.6782091 168.747493,36.4323224 168.772563,36.150592 L166.705346,36.150592 L166.705346,34.1627085 L171.729414,34.1627085" id="Fill-23"></path>
                <path d="M176.916079,34.2265101 L177.161051,34.2265101 C177.367343,34.2265101 177.575784,34.2121726 177.785657,34.1849315 C177.996247,34.1576904 178.184631,34.1010576 178.353676,34.0150331 C178.521288,33.9275748 178.657384,33.8064236 178.762678,33.648712 C178.867257,33.4917172 178.920262,33.2802403 178.920262,33.0142811 C178.920262,32.7497557 178.867257,32.5368449 178.762678,32.3769827 C178.657384,32.2171205 178.521288,32.0938186 178.353676,32.0077941 C178.184631,31.9217696 177.996247,31.8651368 177.785657,31.8371788 C177.575784,31.8099377 177.367343,31.797034 177.161051,31.797034 L176.916079,31.797034 L176.916079,34.2265101 Z M182.482379,39.6023262 L179.329981,39.6023262 L176.947596,35.8545243 L176.916079,35.8545243 L176.916079,39.6023262 L174.387571,39.6023262 L174.387571,29.8593315 L178.170305,29.8593315 C178.649504,29.8593315 179.095754,29.9181149 179.50977,30.0363986 C179.923787,30.1546824 180.282649,30.334617 180.584924,30.5797869 C180.887915,30.8228062 181.125007,31.1332114 181.296917,31.5088518 C181.469543,31.885926 181.555498,32.3346873 181.555498,32.8558526 C181.555498,33.1934989 181.509656,33.5132233 181.417254,33.8193273 C181.324136,34.1247144 181.187325,34.3985591 181.006819,34.6422953 C180.826314,34.8867483 180.603547,35.0924903 180.338519,35.260955 C180.074208,35.4294197 179.769068,35.544836 179.425248,35.6079206 L182.482379,39.6023262 L182.482379,39.6023262 Z" id="Fill-24"></path>
                <polygon id="Fill-25" points="184.679961 39.6008925 187.208469 39.6008925 187.208469 29.8593315 184.679961 29.8593315"></polygon>
                <path d="M197.07968,33.1282636 C196.949315,32.9511964 196.801043,32.7963523 196.634863,32.664448 C196.4694,32.53111 196.290327,32.4207118 196.098361,32.3296692 C195.907828,32.2393435 195.707266,32.1712407 195.496676,32.1246441 C195.286803,32.0787643 195.074781,32.0551076 194.86061,32.0551076 C194.473812,32.0551076 194.119964,32.1246441 193.800499,32.2637171 C193.481033,32.4020732 193.207409,32.5941946 192.981778,32.8379308 C192.753997,33.081667 192.577789,33.3676985 192.451722,33.6960255 C192.325655,34.0236356 192.263337,34.3777699 192.263337,34.7562778 C192.263337,35.1433882 192.325655,35.4982393 192.451722,35.8222651 C192.577789,36.1462908 192.756146,36.4251536 192.986792,36.6588536 C193.21887,36.8918367 193.496075,37.0753557 193.819122,37.20726 C194.144318,37.3391643 194.502464,37.4051164 194.897857,37.4051164 C195.103432,37.4051164 195.309008,37.3821765 195.512435,37.3334293 C195.716578,37.2853989 195.911409,37.2158624 196.098361,37.1255367 C196.286029,37.0344941 196.462953,36.9262465 196.628417,36.8000772 C196.79388,36.6739079 196.945017,36.5312506 197.07968,36.3713883 L197.07968,39.4066204 C196.869091,39.4689882 196.67211,39.5292054 196.486591,39.5865551 C196.301788,39.642471 196.120566,39.6912183 195.944358,39.731363 C195.767435,39.7715078 195.590511,39.8030501 195.411438,39.82599 C195.233081,39.8496468 195.044697,39.8611167 194.847716,39.8611167 C194.16724,39.8611167 193.513982,39.7363811 192.890092,39.4883437 C192.265486,39.2403063 191.6989,38.8868889 191.191049,38.4280914 C190.653114,37.9406191 190.257722,37.3857609 190.005587,36.7656674 C189.753453,36.1455739 189.627385,35.4709982 189.627385,34.744091 C189.627385,34.0745334 189.749155,33.4329338 189.99341,32.8192922 C190.236233,32.2049336 190.594379,31.657961 191.064982,31.1783743 C191.304223,30.9346381 191.567102,30.7145587 191.852186,30.5188529 C192.138703,30.3238639 192.440261,30.156833 192.757578,30.0199106 C193.075612,29.8837051 193.402957,29.7790419 193.743912,29.7080717 C194.084866,29.6363846 194.424388,29.600541 194.766059,29.600541 C195.173629,29.600541 195.566157,29.6442702 195.944358,29.7302947 C196.32256,29.8170361 196.701478,29.9374704 197.07968,30.0937483 L197.07968,33.1282636" id="Fill-26"></path>
                <path d="M208.543923,29.8593315 L208.543923,35.3362265 C208.543923,35.6516498 208.53676,35.9634887 208.521718,36.2703095 C208.507392,36.5778472 208.466564,36.8767824 208.399232,37.1699827 C208.331901,37.4617492 208.230187,37.7441964 208.092659,38.0158906 C207.956564,38.2868678 207.768896,38.5399233 207.528938,38.775057 C207.326944,38.9772147 207.098447,39.1463962 206.842015,39.2833186 C206.585582,39.420241 206.316257,39.531356 206.034754,39.6173805 C205.752536,39.7041219 205.46387,39.7657728 205.166609,39.8044839 C204.871497,39.8410443 204.582116,39.8603998 204.300613,39.8603998 C204.014813,39.8603998 203.723999,39.8410443 203.427454,39.8044839 C203.130909,39.7657728 202.843677,39.7041219 202.56289,39.6173805 C202.284253,39.531356 202.01636,39.420241 201.759928,39.2833186 C201.504212,39.1463962 201.274282,38.9772147 201.072288,38.775057 C200.829465,38.5399233 200.638932,38.2868678 200.502837,38.0158906 C200.365309,37.7441964 200.264312,37.4617492 200.19698,37.1699827 C200.129649,36.8767824 200.087388,36.5778472 200.074494,36.2703095 C200.058736,35.9634887 200.051573,35.6516498 200.051573,35.3362265 L200.051573,29.8593315 L202.580081,29.8593315 L202.580081,34.9892609 C202.580081,35.1993041 202.585095,35.4129317 202.59584,35.6265593 C202.605152,35.8416206 202.628789,36.0459288 202.664604,36.2423515 C202.700418,36.4366236 202.754856,36.6208594 202.828634,36.7907579 C202.902412,36.9613732 203.002693,37.1090486 203.130909,37.235218 C203.259842,37.3613873 203.418142,37.4610323 203.606527,37.5327195 C203.796344,37.6036897 204.02699,37.6395332 204.300613,37.6395332 C204.569939,37.6395332 204.799868,37.6036897 204.991118,37.5327195 C205.182368,37.4610323 205.341384,37.3613873 205.467452,37.235218 C205.593519,37.1090486 205.693083,36.9613732 205.766145,36.7907579 C205.84064,36.6208594 205.89651,36.4366236 205.933757,36.2423515 C205.971005,36.0459288 205.994642,35.8416206 206.002521,35.6265593 C206.011117,35.4129317 206.016131,35.1993041 206.016131,34.9892609 L206.016131,29.8593315 L208.543923,29.8593315" id="Fill-27"></path>
                <polyline id="Fill-28" points="214.19761 37.4567311 217.236118 37.4567311 217.236118 39.6023262 211.668386 39.6023262 211.668386 29.8593315 214.19761 29.8593315 214.19761 37.4567311"></polyline>
                <polyline id="Fill-29" points="222.694258 39.6023262 220.166466 39.6023262 220.166466 32.0056435 218.073463 32.0056435 218.073463 29.8593315 224.788694 29.8593315 224.788694 32.0056435 222.694258 32.0056435 222.694258 39.6023262"></polyline>
                <path d="M235.557418,29.8593315 L235.557418,35.3362265 C235.557418,35.6516498 235.550255,35.9634887 235.535213,36.2703095 C235.520887,36.5778472 235.480058,36.8767824 235.413443,37.1699827 C235.345396,37.4617492 235.243682,37.7441964 235.106871,38.0158906 C234.970059,38.2868678 234.783107,38.5399233 234.543866,38.775057 C234.341155,38.9772147 234.111226,39.1463962 233.856226,39.2833186 C233.599077,39.420241 233.329752,39.531356 233.048249,39.6173805 C232.766031,39.7041219 232.478081,39.7657728 232.180821,39.8044839 C231.885709,39.8410443 231.595611,39.8603998 231.314824,39.8603998 C231.02974,39.8603998 230.737494,39.8410443 230.440949,39.8044839 C230.144404,39.7657728 229.857172,39.7041219 229.577818,39.6173805 C229.298464,39.531356 229.030571,39.420241 228.774139,39.2833186 C228.517707,39.1463962 228.28921,38.9772147 228.087216,38.775057 C227.84296,38.5399233 227.652427,38.2868678 227.516331,38.0158906 C227.37952,37.7441964 227.27709,37.4617492 227.210475,37.1699827 C227.143144,36.8767824 227.101599,36.5778472 227.087989,36.2703095 C227.072231,35.9634887 227.065068,35.6516498 227.065068,35.3362265 L227.065068,29.8593315 L229.593576,29.8593315 L229.593576,34.9892609 C229.593576,35.1993041 229.59859,35.4129317 229.609335,35.6265593 C229.619363,35.8416206 229.643,36.0459288 229.678815,36.2423515 C229.71463,36.4366236 229.768351,36.6208594 229.842846,36.7907579 C229.916624,36.9613732 230.016904,37.1090486 230.144404,37.235218 C230.273337,37.3613873 230.432353,37.4610323 230.620738,37.5327195 C230.809839,37.6036897 231.041201,37.6395332 231.314824,37.6395332 C231.583434,37.6395332 231.814079,37.6036897 232.005329,37.5327195 C232.196579,37.4610323 232.354879,37.3613873 232.481663,37.235218 C232.60773,37.1090486 232.705862,36.9613732 232.781073,36.7907579 C232.854851,36.6208594 232.910005,36.4366236 232.946536,36.2423515 C232.985216,36.0459288 233.008137,35.8416206 233.016733,35.6265593 C233.025328,35.4129317 233.029626,35.1993041 233.029626,34.9892609 L233.029626,29.8593315 L235.557418,29.8593315" id="Fill-30"></path>
                <path d="M241.211105,34.2265101 L241.456077,34.2265101 C241.662369,34.2265101 241.87081,34.2121726 242.079967,34.1849315 C242.290556,34.1576904 242.480374,34.1010576 242.648702,34.0150331 C242.817031,33.9275748 242.953126,33.8064236 243.059137,33.648712 C243.163716,33.4917172 243.215289,33.2802403 243.215289,33.0142811 C243.215289,32.7497557 243.163716,32.5368449 243.059137,32.3769827 C242.953126,32.2171205 242.817031,32.0938186 242.648702,32.0077941 C242.480374,31.9217696 242.290556,31.8651368 242.079967,31.8371788 C241.87081,31.8099377 241.662369,31.797034 241.456077,31.797034 L241.211105,31.797034 L241.211105,34.2265101 Z M246.778122,39.6023262 L243.625007,39.6023262 L241.242622,35.8545243 L241.211105,35.8545243 L241.211105,39.6023262 L238.682597,39.6023262 L238.682597,29.8593315 L242.465331,29.8593315 C242.943814,29.8593315 243.39078,29.9181149 243.805513,30.0363986 C244.219529,30.1546824 244.578391,30.334617 244.880666,30.5797869 C245.182225,30.8228062 245.420033,31.1332114 245.592659,31.5088518 C245.764569,31.885926 245.850524,32.3346873 245.850524,32.8558526 C245.850524,33.1934989 245.804682,33.5132233 245.71228,33.8193273 C245.619879,34.1247144 245.483067,34.3985591 245.302561,34.6422953 C245.122056,34.8867483 244.899289,35.0924903 244.634262,35.260955 C244.36995,35.4294197 244.06481,35.544836 243.720274,35.6079206 L246.778122,39.6023262 L246.778122,39.6023262 Z" id="Fill-31"></path>
                <path d="M253.663114,32.8694731 L253.639476,32.8694731 L252.591542,35.9735249 L254.697439,35.9735249 L253.663114,32.8694731 Z M251.892442,37.9105105 L251.224858,39.6008925 L248.538049,39.6008925 L252.284253,29.8593315 L255.04484,29.8593315 L258.713684,39.6008925 L256.015415,39.6008925 L255.379348,37.9105105 L251.892442,37.9105105 L251.892442,37.9105105 Z" id="Fill-32"></path>
                <polyline id="Fill-33" points="263.483468 37.4567311 266.521976 37.4567311 266.521976 39.6023262 260.95496 39.6023262 260.95496 29.8593315 263.483468 29.8593315 263.483468 37.4567311"></polyline>
                <path d="M64.3874277,49.8715043 L64.3688041,49.8715043 L63.6217122,52.0873528 L65.125924,52.0873528 L64.3874277,49.8715043 Z M63.1224572,53.470914 L62.6454071,54.6781249 L60.727179,54.6781249 L63.4018108,47.7223249 L65.3730445,47.7223249 L67.9925219,54.6781249 L66.0656982,54.6781249 L65.6115695,53.470914 L63.1224572,53.470914 L63.1224572,53.470914 Z" id="Fill-34"></path>
                <polyline id="Fill-35" points="68.8764254 47.7223249 70.6814796 47.7223249 73.994327 51.9748041 74.0136668 51.9748041 74.0136668 47.7223249 75.8172884 47.7223249 75.8172884 54.6781249 74.0136668 54.6781249 70.7044009 50.4156095 70.6814796 50.4156095 70.6814796 54.6781249 68.8764254 54.6781249 68.8764254 47.7223249"></polyline>
                <path d="M79.1752622,53.1468883 L79.5856971,53.1468883 C79.8550226,53.1468883 80.1114549,53.1088941 80.3528451,53.0343395 C80.5942353,52.9590681 80.8062575,52.8407843 80.9874792,52.6823558 C81.1694172,52.5239273 81.3141081,52.3210528 81.4215518,52.0765998 C81.5297118,51.8314299 81.5834336,51.5396633 81.5834336,51.1998664 C81.5834336,50.8880275 81.5347258,50.6098816 81.4373102,50.368296 C81.3398946,50.1274273 81.2037992,49.9238359 81.0283078,49.7589556 C80.8521002,49.5933584 80.6436594,49.4679059 80.4022692,49.3825983 C80.160879,49.2965737 79.8944187,49.2528446 79.6028881,49.2528446 L79.1752622,49.2528446 L79.1752622,53.1468883 Z M77.3709243,47.7223249 L79.9323821,47.7223249 C80.2532806,47.7223249 80.5641511,47.7624697 80.8642771,47.8434761 C81.1644032,47.9244825 81.4451894,48.0398988 81.7080683,48.1882911 C81.9709472,48.3366834 82.2094722,48.516618 82.4257922,48.7266612 C82.6421122,48.9374213 82.8261991,49.1718382 82.9802017,49.4299118 C83.1320555,49.6887022 83.2516761,49.9661313 83.3376311,50.2657834 C83.423586,50.5632849 83.4651309,50.8751238 83.4651309,51.1998664 C83.4651309,51.524609 83.423586,51.836448 83.3376311,52.1353832 C83.2516761,52.4336016 83.1313392,52.7131813 82.9773365,52.970538 C82.8226176,53.2286116 82.6370982,53.4630284 82.4207782,53.6730716 C82.2051745,53.8831149 81.9666495,54.0623326 81.7059194,54.2114418 C81.4444731,54.3598341 81.1644032,54.4752504 80.8642771,54.5562568 C80.5641511,54.6372632 80.2532806,54.6781249 79.9323821,54.6781249 L77.3709243,54.6781249 L77.3709243,47.7223249 L77.3709243,47.7223249 Z" id="Fill-36"></path>
                <polyline id="Fill-37" points="92.2139132 47.0814421 92.2139132 48.7094563 95.0697668 48.7094563 95.0697668 50.8550515 92.2139132 50.8550515 92.2139132 52.5332466 95.2273509 52.5332466 95.2273509 54.677408 89.6861211 54.677408 89.6861211 44.9351301 95.2273509 44.9351301 95.2273509 47.0814421 92.2139132 47.0814421"></polyline>
                <polyline id="Fill-38" points="98.0688786 44.935847 100.596671 44.935847 105.23609 50.8923288 105.261876 50.8923288 105.261876 44.935847 107.790385 44.935847 107.790385 54.6781249 105.261876 54.6781249 100.628187 48.7094563 100.596671 48.7094563 100.596671 54.6781249 98.0688786 54.6781249 98.0688786 44.935847"></polyline>
                <polyline id="Fill-39" points="114.75775 50.8550515 117.121512 44.9351301 119.870638 44.9351301 115.716148 54.6788418 113.748496 54.6788418 109.656323 44.9351301 112.412612 44.9351301 114.75775 50.8550515"></polyline>
                <polygon id="Fill-40" points="121.744456 54.6766911 124.272964 54.6766911 124.272964 44.9351301 121.744456 44.9351301"></polygon>
                <path d="M129.72609,49.3030256 L129.971778,49.3030256 C130.17807,49.3030256 130.385795,49.2886882 130.595668,49.2614471 C130.806258,49.2334891 130.994642,49.1768563 131.163687,49.0908318 C131.330583,49.0048072 131.468111,48.8829391 131.572689,48.7252275 C131.6787,48.5660821 131.73099,48.3560389 131.73099,48.0900797 C131.73099,47.8255543 131.6787,47.6133605 131.572689,47.4534982 C131.468111,47.293636 131.330583,47.1703341 131.163687,47.0835927 C130.994642,46.9975682 130.806258,46.9409354 130.595668,46.9144112 C130.385795,46.8864532 130.17807,46.8721158 129.971778,46.8721158 L129.72609,46.8721158 L129.72609,49.3030256 Z M135.29239,54.6781249 L132.139992,54.6781249 L129.756891,50.9303229 L129.72609,50.9303229 L129.72609,54.6781249 L127.197582,54.6781249 L127.197582,44.935847 L130.980316,44.935847 C131.459515,44.935847 131.906481,44.9946304 132.319781,45.1121973 C132.734514,45.230481 133.092659,45.4111325 133.394934,45.6548687 C133.697926,45.8993217 133.934302,46.20901 134.106928,46.5853674 C134.278838,46.9624415 134.365509,47.4112028 134.365509,47.933085 C134.365509,48.2692975 134.319666,48.5904557 134.227265,48.8951259 C134.134863,49.200513 133.998052,49.4743578 133.81683,49.7180939 C133.636325,49.962547 133.413558,50.1690058 133.14853,50.3374705 C132.884219,50.5045015 132.579079,50.6213515 132.235259,50.6837193 L135.29239,54.6781249 L135.29239,54.6781249 Z" id="Fill-41"></path>
                <path d="M141.886568,47.0678216 C141.50765,47.0678216 141.153086,47.1387918 140.820727,47.2792986 C140.488367,47.421239 140.197553,47.6097761 139.946851,47.8477773 C139.697582,48.0857785 139.499169,48.3589064 139.355195,48.6678778 C139.209787,48.9775661 139.137442,49.3001581 139.137442,49.6370875 C139.137442,50.0564571 139.209787,50.4450012 139.355195,50.8012861 C139.499169,51.1561373 139.697582,51.4622413 139.946851,51.7224655 C140.197553,51.9812559 140.488367,52.1812629 140.820727,52.3267878 C141.153086,52.4730295 141.50765,52.5454334 141.886568,52.5454334 C142.264054,52.5454334 142.620767,52.4730295 142.955275,52.3267878 C143.289067,52.1812629 143.579881,51.9812559 143.827718,51.7224655 C144.076987,51.4622413 144.272535,51.1561373 144.417942,50.8012861 C144.562633,50.4450012 144.634978,50.0564571 144.634978,49.6370875 C144.634978,49.3001581 144.562633,48.9775661 144.417942,48.6678778 C144.272535,48.3589064 144.076987,48.0857785 143.827718,47.8477773 C143.579881,47.6097761 143.289067,47.421239 142.955275,47.2792986 C142.620767,47.1387918 142.264054,47.0678216 141.886568,47.0678216 M141.886568,44.613255 C142.352874,44.613255 142.810584,44.6698878 143.25755,44.7817197 C143.705232,44.8928348 144.12856,45.0519801 144.527534,45.258439 C144.927225,45.464181 145.294682,45.7150859 145.630623,46.0118705 C145.96728,46.3086551 146.256662,46.6420002 146.498052,47.0147731 C146.740158,47.3868292 146.929259,47.7911445 147.066071,48.2298696 C147.202166,48.6671609 147.27093,49.1309765 147.27093,49.623467 C147.27093,50.4148926 147.136984,51.1389324 146.870523,51.79702 C146.60263,52.4558246 146.230159,53.0214358 145.751676,53.4945707 C145.271761,53.9691394 144.703026,54.3368943 144.04547,54.6021366 C143.387198,54.866662 142.668042,55 141.886568,55 C141.365108,55 140.870151,54.9404997 140.40098,54.8193485 C139.933242,54.7003479 139.499169,54.5290157 139.102344,54.3053519 C138.705518,54.0831219 138.34594,53.8128615 138.025042,53.4945707 C137.703427,53.1769969 137.429803,52.8185613 137.204888,52.4192641 C136.980689,52.019967 136.807346,51.5848262 136.685577,51.1159925 C136.563091,50.6478757 136.502206,50.1496503 136.502206,49.623467 C136.502206,49.1309765 136.57097,48.6671609 136.706349,48.2298696 C136.843161,47.7911445 137.033694,47.3868292 137.27795,47.0147731 C137.521489,46.6420002 137.810154,46.3086551 138.143946,46.0118705 C138.478454,45.7150859 138.845195,45.464181 139.244169,45.258439 C139.64386,45.0519801 140.067188,44.8928348 140.51487,44.7817197 C140.962552,44.6698878 141.419546,44.613255 141.886568,44.613255" id="Fill-43"></path>
                <polyline id="Fill-45" points="149.959888 44.935847 152.488396 44.935847 157.128531 50.8923288 157.153602 50.8923288 157.153602 44.935847 159.681394 44.935847 159.681394 54.6781249 157.153602 54.6781249 152.519913 48.7094563 152.488396 48.7094563 152.488396 54.6781249 149.959888 54.6781249 149.959888 44.935847"></polyline>
                <polyline id="Fill-46" points="163.649648 44.935847 166.140193 44.935847 168.120022 50.1417647 170.206578 44.935847 172.72864 44.935847 174.197754 54.6781249 171.669962 54.6781249 170.956535 49.0686087 170.931465 49.0686087 168.592774 54.6781249 167.589966 54.6781249 165.351556 49.0686087 165.327202 49.0686087 164.513495 54.6781249 161.999312 54.6781249 163.649648 44.935847"></polyline>
                <polyline id="Fill-47" points="179.075698 47.0814421 179.075698 48.7094563 181.932267 48.7094563 181.932267 50.8550515 179.075698 50.8550515 179.075698 52.5332466 182.088419 52.5332466 182.088419 54.677408 176.547189 54.677408 176.547189 44.9351301 182.088419 44.9351301 182.088419 47.0814421 179.075698 47.0814421"></polyline>
                <polyline id="Fill-48" points="184.929947 44.935847 187.459171 44.935847 192.09859 50.8923288 192.122944 50.8923288 192.122944 44.935847 194.652169 44.935847 194.652169 54.6781249 192.122944 54.6781249 187.489972 48.7094563 187.459171 48.7094563 187.459171 54.6781249 184.929947 54.6781249 184.929947 44.935847"></polyline>
                <polyline id="Fill-49" points="201.313678 54.6781249 198.785886 54.6781249 198.785886 47.0814421 196.692167 47.0814421 196.692167 44.935847 203.407398 44.935847 203.407398 47.0814421 201.313678 47.0814421 201.313678 54.6781249"></polyline>
                <path d="M209.081858,47.9452718 L209.056788,47.9452718 L208.010286,51.0493235 L210.115466,51.0493235 L209.081858,47.9452718 Z M207.309753,52.9863092 L206.64217,54.6781249 L203.956077,54.6781249 L207.701564,44.935847 L210.462867,44.935847 L214.132428,54.6781249 L211.433442,54.6781249 L210.797376,52.9863092 L207.309753,52.9863092 L207.309753,52.9863092 Z" id="Fill-50"></path>
                <polyline id="Fill-51" points="218.900779 52.5332466 221.940003 52.5332466 221.940003 54.6788418 216.372271 54.6788418 216.372271 44.9351301 218.900779 44.9351301 218.900779 52.5332466"></polyline>
                <path d="M235.12048,47.4405945 C234.88482,47.2477562 234.62409,47.0914783 234.339006,46.9739115 C234.051774,46.8556277 233.753796,46.7968443 233.442926,46.7968443 C233.324738,46.7968443 233.203685,46.8147661 233.076901,46.8470253 C232.95155,46.8814351 232.834078,46.932333 232.728067,46.999002 C232.619907,47.0671047 232.531087,47.1516955 232.462323,47.2549249 C232.393559,47.3581544 232.358461,47.4764381 232.358461,47.610493 C232.358461,47.7538672 232.396424,47.8764522 232.472351,47.9768141 C232.547562,48.0778929 232.642828,48.1639175 232.756003,48.2356046 C232.869177,48.3065748 232.990946,48.3675088 233.121311,48.4155392 C233.25096,48.4642864 233.372013,48.5051481 233.481606,48.5381242 L234.123403,48.7345468 C234.464357,48.8356256 234.780242,48.9553431 235.072489,49.0972836 C235.364019,49.2377903 235.619019,49.4134237 235.832474,49.6241838 C236.047361,49.8342271 236.21569,50.0836982 236.341041,50.3718804 C236.463526,50.6593457 236.52656,51.00201 236.52656,51.397006 C236.52656,51.6364409 236.510802,51.8780265 236.479285,52.1188952 C236.447768,52.3611976 236.392614,52.5956144 236.315254,52.8228626 C236.237178,53.0501107 236.133316,53.2658889 236.002951,53.4701971 C235.872586,53.6737885 235.709988,53.8573075 235.516589,54.021471 C235.134806,54.3462136 234.703599,54.5791967 234.221535,54.721854 C233.740187,54.8659451 233.25096,54.9369153 232.756003,54.9369153 C232.142141,54.9369153 231.542605,54.838704 230.959544,54.6429982 C230.37505,54.4472924 229.832818,54.1755983 229.333563,53.8264821 L230.416595,51.7812489 C230.577044,51.9217556 230.743224,52.0515093 230.915134,52.1733774 C231.087044,52.2952454 231.268265,52.4020592 231.455934,52.4952525 C231.647184,52.587012 231.840582,52.6601328 232.043293,52.7124644 C232.244571,52.764796 232.453011,52.7920371 232.667899,52.7920371 C232.814738,52.7920371 232.962294,52.7726816 233.109134,52.7354043 C233.255258,52.6966932 233.387771,52.6379098 233.502378,52.5583371 C233.619134,52.4773307 233.712968,52.3762519 233.783881,52.2522332 C233.85551,52.1274976 233.890608,51.9798222 233.890608,51.8077731 C233.890608,51.630706 233.83617,51.4808799 233.726577,51.3597287 C233.617701,51.2371437 233.483755,51.1324806 233.325454,51.0457392 C233.168586,50.9604315 233.002407,50.8901781 232.825483,50.8349791 C232.648559,50.7812137 232.493124,50.7346171 232.358461,50.696623 C231.959487,50.5826405 231.597759,50.4643567 231.273996,50.3432055 C230.950948,50.2206206 230.675176,50.0600414 230.445247,49.8607513 C230.216033,49.6614611 230.038393,49.4091225 229.913042,49.1066029 C229.786259,48.8033665 229.722509,48.4162561 229.722509,47.9445549 C229.722509,47.4534982 229.805599,47.0054538 229.971062,46.6011385 C230.138674,46.1975401 230.371469,45.853442 230.66873,45.569561 C230.967423,45.286397 231.321271,45.0663176 231.73099,44.9100397 C232.141425,44.7544786 232.589823,44.6770566 233.076901,44.6770566 C233.321156,44.6770566 233.576872,44.6956952 233.846198,44.7336894 C234.114807,44.7716835 234.381984,44.8254489 234.647012,44.8942685 C234.912039,44.963805 235.170621,45.0483958 235.422039,45.147324 C235.674173,45.2462522 235.909833,45.3566503 236.129018,45.4785184 L235.12048,47.4405945" id="Fill-52"></path>
                <path d="M245.879176,48.2040622 C245.749527,48.0269951 245.599822,47.8735847 245.435075,47.7409635 C245.269612,47.6076255 245.090539,47.4965105 244.898573,47.4054679 C244.70804,47.3151421 244.507478,47.2484731 244.296888,47.2011596 C244.087731,47.154563 243.874277,47.1316231 243.659389,47.1316231 C243.273308,47.1316231 242.920893,47.2011596 242.601427,47.3395157 C242.281245,47.4785887 242.007621,47.6699933 241.78199,47.9137295 C241.554209,48.1574656 241.378001,48.4434972 241.251934,48.772541 C241.125867,49.1008679 241.062833,49.4542854 241.062833,49.8320764 C241.062833,50.2191868 241.125867,50.574038 241.251934,50.8980637 C241.378001,51.2220894 241.555642,51.5016692 241.787004,51.7346523 C242.018366,51.9676354 242.296287,52.1504375 242.619334,52.2837755 C242.943098,52.4156798 243.302676,52.4816319 243.698069,52.4816319 C243.903644,52.4816319 244.108504,52.4579752 244.312647,52.4099448 C244.51679,52.3604807 244.712337,52.2916611 244.898573,52.2020522 C245.086958,52.1117264 245.263165,52.0020452 245.427912,51.8765927 C245.594092,51.7504234 245.745946,51.6077661 245.879176,51.447187 L245.879176,54.4824191 C245.668586,54.5455037 245.472323,54.605004 245.286803,54.6623537 C245.102,54.7182697 244.921494,54.7677338 244.744571,54.8071617 C244.568363,54.8473065 244.390006,54.8795657 244.21165,54.9025055 C244.033293,54.9254454 243.845625,54.9369153 243.647928,54.9369153 C242.966019,54.9369153 242.314194,54.8121798 241.689588,54.5648593 C241.065698,54.3168219 240.499112,53.9626876 239.990545,53.5038901 C239.45261,53.0164177 239.057934,52.4622764 238.805799,51.8414661 C238.553665,51.2213726 238.428314,50.5467969 238.428314,49.8191728 C238.428314,49.1510489 238.549367,48.5087324 238.792906,47.8950908 C239.036445,47.2807323 239.393874,46.7344765 239.865194,46.2541729 C240.104435,46.0104368 240.36803,45.7903573 240.652398,45.5946515 C240.938198,45.4003795 241.240473,45.2333485 241.55779,45.0964261 C241.875824,44.9602206 242.203169,44.8555575 242.544124,44.7838703 C242.885078,44.7129001 243.225317,44.6770566 243.565555,44.6770566 C243.973841,44.6770566 244.367085,44.7200688 244.744571,44.8068102 C245.122772,44.8928348 245.502407,45.0132691 245.879176,45.1688301 L245.879176,48.2040622" id="Fill-53"></path>
                <polygon id="Fill-54" points="248.733597 54.6766911 251.262822 54.6766911 251.262822 44.9351301 248.733597 44.9351301"></polygon>
                <polyline id="Fill-55" points="256.715948 47.0814421 256.715948 48.7094563 259.571085 48.7094563 259.571085 50.8550515 256.715948 50.8550515 256.715948 52.5332466 259.729385 52.5332466 259.729385 54.677408 254.187439 54.677408 254.187439 44.9351301 259.729385 44.9351301 259.729385 47.0814421 256.715948 47.0814421"></polyline>
                <polyline id="Fill-56" points="262.822331 44.935847 265.350839 44.935847 269.991691 50.8923288 270.015329 50.8923288 270.015329 44.935847 272.54527 44.935847 272.54527 54.6781249 270.015329 54.6781249 265.383073 48.7094563 265.350839 48.7094563 265.350839 54.6781249 262.822331 54.6781249 262.822331 44.935847"></polyline>
                <path d="M282.16363,48.2040622 C282.033981,48.0269951 281.884992,47.8735847 281.719529,47.7409635 C281.554066,47.6076255 281.374993,47.4965105 281.183027,47.4054679 C280.99321,47.3151421 280.791215,47.2484731 280.580626,47.2011596 C280.371469,47.154563 280.159446,47.1316231 279.944559,47.1316231 C279.558478,47.1316231 279.205346,47.2011596 278.885164,47.3395157 C278.565698,47.4785887 278.292075,47.6699933 278.066443,47.9137295 C277.838663,48.1574656 277.662455,48.4434972 277.536388,48.772541 C277.41032,49.1008679 277.347287,49.4542854 277.347287,49.8320764 C277.347287,50.2191868 277.41032,50.574038 277.536388,50.8980637 C277.662455,51.2220894 277.840095,51.5016692 278.071457,51.7346523 C278.303536,51.9676354 278.58074,52.1504375 278.904504,52.2837755 C279.228984,52.4156798 279.58713,52.4816319 279.982522,52.4816319 C280.188814,52.4816319 280.392957,52.4579752 280.5971,52.4099448 C280.800527,52.3604807 280.996075,52.2916611 281.183027,52.2020522 C281.370695,52.1117264 281.547619,52.0020452 281.712366,51.8765927 C281.878546,51.7504234 282.029683,51.6077661 282.16363,51.447187 L282.16363,54.4824191 C281.952324,54.5455037 281.75606,54.605004 281.57054,54.6623537 C281.385737,54.7182697 281.205232,54.7677338 281.029024,54.8071617 C280.852816,54.8473065 280.67446,54.8795657 280.495387,54.9025055 C280.317031,54.9254454 280.130079,54.9369153 279.932382,54.9369153 C279.250473,54.9369153 278.597931,54.8121798 277.974042,54.5648593 C277.350152,54.3168219 276.783565,53.9626876 276.275715,53.5038901 C275.737064,53.0164177 275.341671,52.4622764 275.089536,51.8414661 C274.837402,51.2213726 274.712051,50.5467969 274.712051,49.8191728 C274.712051,49.1510489 274.833104,48.5087324 275.076643,47.8950908 C275.320899,47.2807323 275.679044,46.7344765 276.148931,46.2541729 C276.388889,46.0104368 276.651768,45.7903573 276.936852,45.5946515 C277.222652,45.4003795 277.524211,45.2333485 277.841528,45.0964261 C278.159561,44.9602206 278.488339,44.8555575 278.829293,44.7838703 C279.169532,44.7129001 279.509054,44.6770566 279.850725,44.6770566 C280.257578,44.6770566 280.650822,44.7200688 281.029024,44.8068102 C281.407942,44.8928348 281.786144,45.0132691 282.16363,45.1688301 L282.16363,48.2040622" id="Fill-57"></path>
                <polyline id="Fill-58" points="287.537963 47.0814421 287.537963 48.7094563 290.394533 48.7094563 290.394533 50.8550515 287.537963 50.8550515 287.537963 52.5332466 290.550685 52.5332466 290.550685 54.677408 285.009455 54.677408 285.009455 44.9351301 290.550685 44.9351301 290.550685 47.0814421 287.537963 47.0814421"></polyline>
                <path d="M298.59392,47.4405945 C298.35826,47.2477562 298.09753,47.0914783 297.81173,46.9739115 C297.52593,46.8556277 297.228669,46.7968443 296.917082,46.7968443 C296.798894,46.7968443 296.677125,46.8147661 296.551057,46.8470253 C296.42499,46.8814351 296.308234,46.932333 296.201507,46.999002 C296.09478,47.0671047 296.005243,47.1516955 295.935763,47.2549249 C295.866999,47.3581544 295.831901,47.4764381 295.831901,47.610493 C295.831901,47.7538672 295.869864,47.8764522 295.946507,47.9768141 C296.021718,48.0778929 296.115552,48.1639175 296.230159,48.2356046 C296.342616,48.3065748 296.464386,48.3675088 296.594751,48.4155392 C296.725116,48.4642864 296.844737,48.5051481 296.955046,48.5381242 L297.596843,48.7345468 C297.937797,48.8356256 298.254398,48.9553431 298.546645,49.0972836 C298.838892,49.2377903 299.092459,49.4134237 299.305914,49.6241838 C299.520801,49.8342271 299.689846,50.0836982 299.813048,50.3718804 C299.937683,50.6593457 300,51.00201 300,51.397006 C300,51.6364409 299.983525,51.8780265 299.952008,52.1188952 C299.921208,52.3611976 299.866054,52.5956144 299.788694,52.8228626 C299.709902,53.0501107 299.606756,53.2658889 299.476391,53.4701971 C299.346026,53.6737885 299.184144,53.8573075 298.991462,54.021471 C298.608246,54.3462136 298.177039,54.5791967 297.694975,54.721854 C297.214343,54.8659451 296.725116,54.9369153 296.230159,54.9369153 C295.616297,54.9369153 295.016761,54.838704 294.432984,54.6429982 C293.849206,54.4472924 293.306258,54.1755983 292.807002,53.8264821 L293.890751,51.7812489 C294.050484,51.9217556 294.215948,52.0515093 294.388574,52.1733774 C294.560484,52.2952454 294.741705,52.4020592 294.930806,52.4952525 C295.120623,52.587012 295.315455,52.6601328 295.517449,52.7124644 C295.718727,52.764796 295.926451,52.7920371 296.141339,52.7920371 C296.288178,52.7920371 296.435734,52.7726816 296.582574,52.7354043 C296.729414,52.6966932 296.861211,52.6379098 296.976534,52.5583371 C297.092573,52.4773307 297.184975,52.3762519 297.25732,52.2522332 C297.328233,52.1274976 297.364764,51.9798222 297.364764,51.8077731 C297.364764,51.630706 297.310326,51.4808799 297.200733,51.3597287 C297.091141,51.2371437 296.957911,51.1324806 296.79961,51.0457392 C296.642743,50.9604315 296.475847,50.8901781 296.299639,50.8349791 C296.123431,50.7812137 295.966564,50.7346171 295.831901,50.696623 C295.432926,50.5826405 295.071199,50.4643567 294.748152,50.3432055 C294.423672,50.2206206 294.147184,50.0600414 293.919403,49.8607513 C293.688757,49.6614611 293.511833,49.4091225 293.38505,49.1066029 C293.260415,48.8033665 293.197381,48.4162561 293.197381,47.9445549 C293.197381,47.4534982 293.279755,47.0054538 293.445218,46.6011385 C293.612114,46.1975401 293.844909,45.853442 294.142886,45.569561 C294.441579,45.286397 294.794711,45.0663176 295.20443,44.9100397 C295.615581,44.7544786 296.063979,44.6770566 296.551057,44.6770566 C296.794596,44.6770566 297.051029,44.6956952 297.320354,44.7336894 C297.58968,44.7716835 297.85614,44.8254489 298.121168,44.8942685 C298.385479,44.963805 298.644777,45.0483958 298.896195,45.147324 C299.147613,45.2462522 299.383273,45.3566503 299.602458,45.4785184 L298.59392,47.4405945" id="Fill-59"></path>
            </g>
        </g>
    </g>
</svg>